<?xml version="1.0" standalone="no"?>
<!DOCTYPE svg PUBLIC "-//W3C//DTD SVG 20010904//EN"
 "http://www.w3.org/TR/2001/REC-SVG-20010904/DTD/svg10.dtd">
<svg version="1.0" xmlns="http://www.w3.org/2000/svg"
 width="700.000000pt" height="700.000000pt" viewBox="0 0 700.000000 700.000000"
 preserveAspectRatio="xMidYMid meet">
<metadata>
Created by potrace 1.14, written by Peter Selinger 2001-2017
</metadata>
<g transform="translate(0.000000,700.000000) scale(0.100000,-0.100000)"
fill="#000000" stroke="none">
<path d="M3369 6496 c-2 -2 -32 -6 -65 -10 -34 -3 -97 -16 -140 -27 -378 -99
-612 -376 -660 -782 -4 -29 -7 -53 -8 -53 0 -1 -21 -4 -46 -8 -25 -3 -76 -14
-115 -24 -559 -150 -891 -724 -744 -1287 20 -75 73 -190 124 -270 57 -88 169
-206 241 -254 l47 -30 -29 -11 c-31 -12 -76 -34 -136 -68 -169 -96 -284 -200
-387 -353 -364 -538 -140 -1339 468 -1673 46 -25 122 -59 170 -76 174 -59 195
-62 601 -66 206 -3 389 -6 405 -7 l30 -2 0 -745 0 -745 375 -3 375 -2 0 746
c0 493 3 748 10 750 5 2 186 5 400 7 215 2 401 7 415 11 14 3 41 9 60 12 19 3
78 19 130 36 344 110 620 371 760 720 125 313 111 679 -36 947 -113 207 -294
373 -517 476 -47 22 -86 42 -87 45 0 3 22 23 50 44 102 78 221 223 270 331 50
109 59 137 80 232 50 230 20 471 -85 689 -147 304 -443 524 -767 569 -26 3
-50 10 -52 14 -3 4 -8 32 -11 62 -12 103 -60 261 -107 349 -127 239 -376 403
-673 444 -87 12 -337 20 -346 12z"/>
</g>
</svg>
