<?xml version="1.0" standalone="no"?>
<!DOCTYPE svg PUBLIC "-//W3C//DTD SVG 20010904//EN"
 "http://www.w3.org/TR/2001/REC-SVG-20010904/DTD/svg10.dtd">
<svg version="1.0" xmlns="http://www.w3.org/2000/svg"
 width="700.000000pt" height="700.000000pt" viewBox="0 0 700.000000 700.000000"
 preserveAspectRatio="xMidYMid meet">
<metadata>
Created by potrace 1.14, written by Peter Selinger 2001-2017
</metadata>
<g transform="translate(0.000000,700.000000) scale(0.100000,-0.100000)"
fill="#000000" stroke="none">
<path d="M3195 6423 c-111 -82 -173 -171 -203 -293 -2 -8 -3 -49 -4 -90 0 -92
25 -164 88 -250 41 -56 152 -150 178 -150 6 0 34 16 61 35 190 135 258 358
167 555 -37 81 -129 178 -209 219 -27 14 -20 16 -78 -26z"/>
<path d="M5418 6270 c-62 -11 -165 -69 -212 -116 -90 -93 -127 -197 -122 -339
5 -131 10 -142 59 -153 204 -42 398 26 493 175 66 104 90 234 64 359 -10 45
-16 57 -38 65 -33 13 -194 19 -244 9z"/>
<path d="M2625 6155 c-64 -47 -84 -64 -122 -104 -189 -201 -151 -490 88 -667
26 -19 54 -34 62 -34 19 0 110 71 154 119 182 202 136 508 -101 665 -30 20
-56 36 -58 36 -2 0 -12 -7 -23 -15z"/>
<path d="M3730 6153 c-48 -8 -87 -24 -87 -36 -1 -6 -5 -41 -11 -77 -5 -36 -8
-76 -6 -90 2 -14 5 -43 8 -66 24 -199 213 -357 423 -355 151 1 179 13 190 79
43 257 -76 466 -302 534 -34 10 -177 17 -215 11z"/>
<path d="M4597 6129 c-290 -192 -293 -565 -7 -759 l55 -37 57 38 c200 136 265
368 161 574 -29 55 -141 173 -189 198 -31 16 -33 15 -77 -14z"/>
<path d="M3505 5555 c-5 -2 -26 -6 -46 -9 -34 -6 -37 -9 -48 -61 -15 -68 -12
-185 6 -249 42 -143 147 -245 299 -291 50 -15 230 -15 267 0 25 11 37 46 44
134 17 221 -106 404 -312 464 -45 13 -186 21 -210 12z"/>
<path d="M3040 5482 c-21 -7 -121 -85 -143 -111 -51 -62 -79 -111 -97 -169
-59 -191 17 -383 203 -510 l45 -32 38 26 c212 141 286 373 184 579 -42 87
-193 230 -230 217z"/>
<path d="M5054 5436 c-84 -31 -125 -58 -180 -119 -95 -105 -130 -255 -100
-417 9 -42 12 -46 56 -58 114 -30 277 -5 373 59 150 99 223 299 177 487 -14
60 -17 62 -160 67 -91 3 -113 1 -166 -19z"/>
<path d="M1495 5366 c-58 -11 -60 -13 -73 -50 -14 -45 -19 -161 -8 -226 18
-118 116 -244 229 -300 90 -43 172 -53 305 -36 52 7 63 11 67 29 18 81 21 110
19 173 -8 277 -252 462 -539 410z"/>
<path d="M4313 5294 c-69 -51 -130 -120 -161 -183 -30 -62 -29 -60 -40 -121
-31 -172 61 -357 226 -456 l43 -26 62 47 c222 169 264 423 106 633 -40 53
-149 142 -174 142 -8 0 -35 -16 -62 -36z"/>
<path d="M2380 5303 c-21 -8 -98 -71 -138 -113 -18 -19 -49 -68 -69 -107 -59
-119 -57 -255 5 -378 28 -56 140 -173 191 -199 33 -18 33 -18 80 15 132 93
210 222 215 359 7 154 -61 286 -197 386 -61 46 -62 46 -87 37z"/>
<path d="M5681 5084 c-242 -50 -386 -285 -330 -543 10 -48 13 -51 52 -62 71
-20 203 -15 277 9 116 39 217 136 261 252 40 103 32 321 -13 335 -65 21 -169
25 -247 9z"/>
<path d="M3492 4760 c-53 -32 -69 -80 -77 -235 -8 -158 -22 -494 -30 -750 -3
-82 -7 -220 -10 -305 -3 -85 -7 -220 -10 -300 -17 -518 -16 -507 -33 -496 -4
2 -37 7 -74 10 -125 13 -291 68 -402 133 -149 87 -239 182 -305 324 -32 68
-131 366 -146 440 -9 45 -50 169 -70 215 -39 87 -80 88 -106 3 -14 -46 -19
-257 -9 -347 14 -118 24 -178 46 -265 8 -34 17 -72 20 -85 8 -38 50 -145 84
-213 81 -163 263 -340 460 -446 131 -71 325 -127 468 -135 23 -1 43 -7 43 -12
2 -16 2 -31 -6 -336 -7 -282 -9 -363 -20 -820 -11 -430 -17 -709 -16 -752 1
-17 21 -18 282 -18 l281 0 -7 298 c-12 537 -21 911 -30 1252 -3 102 -7 262
-10 355 -8 302 -16 608 -20 705 -2 52 -6 211 -10 353 -6 244 -5 257 12 258
209 10 357 60 445 152 95 99 178 327 181 493 1 104 -17 140 -66 130 -41 -8
-59 -31 -108 -136 -105 -222 -120 -249 -161 -285 -23 -19 -60 -40 -82 -47 -43
-11 -220 -18 -233 -9 -5 3 -9 35 -9 71 -2 58 -8 203 -19 450 -11 242 -22 293
-66 336 -24 23 -39 28 -92 30 -48 2 -71 -2 -95 -16z"/>
<path d="M4944 4694 c-209 -42 -348 -220 -343 -439 1 -44 7 -98 13 -120 11
-38 14 -40 69 -51 111 -22 236 -6 331 43 50 26 126 105 161 167 35 64 55 146
55 227 0 60 -19 152 -33 161 -10 6 -95 18 -162 23 -17 1 -58 -4 -91 -11z"/>
<path d="M1023 4649 c-33 -8 -42 -15 -48 -37 -69 -268 58 -500 308 -565 58
-15 195 -16 249 -2 33 8 48 53 54 151 11 214 -118 396 -320 450 -57 15 -180
17 -243 3z"/>
<path d="M1757 4608 c-38 -8 -51 -16 -59 -37 -15 -36 -19 -197 -7 -250 32
-144 148 -268 289 -311 66 -21 182 -25 254 -10 49 10 53 13 62 50 15 55 17
176 4 234 -32 145 -132 257 -280 314 -45 17 -200 22 -263 10z"/>
<path d="M2790 4505 c-128 -45 -223 -141 -267 -268 -31 -89 -27 -273 7 -307
19 -19 105 -34 188 -31 167 6 324 118 384 274 26 66 34 194 18 270 -14 71 -26
77 -160 83 -84 4 -104 2 -170 -21z"/>
<path d="M5528 4294 c-117 -27 -208 -91 -290 -201 l-39 -54 25 -42 c84 -141
230 -228 382 -229 160 -1 293 75 391 224 l27 40 -20 36 c-32 60 -135 155 -206
190 -35 17 -89 34 -119 38 -30 3 -63 7 -74 8 -11 2 -46 -3 -77 -10z"/>
<path d="M4716 3920 c-103 -32 -188 -98 -263 -203 l-33 -45 36 -54 c44 -65 88
-108 157 -152 76 -49 121 -60 227 -61 89 0 100 2 170 36 79 38 154 103 209
182 l30 44 -28 45 c-113 178 -322 264 -505 208z"/>
<path d="M1581 3904 c-30 -8 -78 -28 -106 -44 -61 -35 -152 -123 -183 -178
l-22 -39 32 -44 c148 -207 367 -273 572 -173 82 40 216 177 216 221 0 36 -91
141 -169 196 -95 66 -230 90 -340 61z"/>
<path d="M2919 3770 c-199 -131 -271 -364 -175 -564 26 -54 53 -89 103 -137
38 -35 81 -70 95 -78 25 -13 31 -11 78 19 90 58 170 163 202 265 15 48 17 162
4 213 -20 75 -63 149 -119 206 -47 48 -123 106 -138 106 -3 0 -26 -13 -50 -30z"/>
<path d="M4128 3465 c-2 -2 -23 -5 -47 -9 -59 -8 -69 -18 -77 -84 -28 -213 38
-370 196 -472 52 -33 150 -61 225 -64 54 -2 162 17 175 30 22 22 34 186 19
254 -18 87 -54 154 -115 216 -81 83 -178 124 -306 129 -37 1 -68 1 -70 0z"/>
<path d="M1851 3264 c-109 -31 -218 -124 -265 -227 -44 -96 -54 -222 -27 -323
10 -37 15 -41 54 -50 113 -26 259 -8 346 43 97 57 178 164 202 270 25 114 6
275 -34 288 -51 15 -222 14 -276 -1z"/>
<path d="M4831 3266 c-52 -13 -59 -28 -65 -146 -7 -134 27 -240 104 -324 108
-118 258 -165 428 -136 63 10 71 14 77 38 54 209 -14 409 -175 512 -27 17 -75
39 -107 49 -68 20 -199 24 -262 7z"/>
<path d="M2210 2734 c-165 -115 -249 -300 -210 -465 28 -118 110 -232 217
-303 l42 -28 56 37 c154 103 241 291 207 453 -25 119 -117 250 -220 312 -41
25 -49 25 -92 -6z"/>
</g>
</svg>
